<?xml version="1.0" encoding="UTF-8" standalone="no"?>

<!DOCTYPE svg PUBLIC "-//W3C//DTD SVG 1.1//EN" "http://www.w3.org/Graphics/SVG/1.1/DTD/svg11.dtd">
<svg width="100%" height="100%" viewBox="0 0 900 900" version="1.1" xmlns="http://www.w3.org/2000/svg" xmlns:xlink="http://www.w3.org/1999/xlink" xml:space="preserve" style="fill-rule:evenodd;clip-rule:evenodd;stroke-linecap:round;stroke-linejoin:round;stroke-miterlimit:1.5;">

    <rect id="Artboard1" x="0" y="0" width="900" height="900" style="fill:none;"/>

    <clipPath id="_clip1">

        <rect id="Artboard11" x="0" y="0" width="900" height="900"/>

    </clipPath>

    <g clip-path="url(#_clip1)">

        <a href="https://vision.lcps.org/mod/url/view.php?id=746506"><g transform="matrix(0.999774,0.0212529,-0.0212529,0.999774,17.6352,-11.5847)">

            <path d="M1347.7,655.55C1355.45,1023.94 218.47,1001.64 45.375,1003.48C-127.72,1005.32 -240.047,672.02 -240.047,672.02L-169.642,692.378C-204.992,715.433 -189.187,782.304 -132.813,771.56C-79.412,758.67 -37.059,640.818 20.026,688.696C-15.324,711.75 0.48,778.621 56.854,767.877C110.256,754.987 152.609,635.294 209.693,683.171C174.343,706.225 190.148,773.097 246.522,762.353C299.923,749.463 342.276,629.77 399.361,677.647L399.361,679.488C364.011,702.543 379.815,769.414 436.189,758.67C489.591,745.78 531.944,626.087 589.028,673.964C553.678,697.018 569.483,763.89 625.857,753.146C679.258,740.256 721.611,622.404 778.696,670.281C743.346,693.335 759.15,760.207 815.524,749.463C868.926,736.573 911.279,616.88 968.363,664.757C933.013,687.811 948.818,754.683 1005.19,743.939C1058.59,731.049 1100.95,613.197 1158.03,661.074C1122.68,684.128 1138.49,751 1194.86,740.256C1248.26,727.366 1290.61,607.673 1347.7,655.55Z" style="fill:rgb(0,115,255);stroke:black;stroke-width:1px;"/>

        </g></a>
        <g transform="matrix(0.992949,0.0211078,-0.0211078,0.992949,82.143,11.8019)">

            <path d="M1347.7,655.55C1355.45,1023.94 218.47,1001.64 45.375,1003.48C-127.72,1005.32 -240.047,672.02 -240.047,672.02L-169.642,692.378C-204.992,715.433 -189.187,782.304 -132.813,771.56C-79.412,758.67 -37.059,640.818 20.026,688.696C-15.324,711.75 0.48,778.621 56.854,767.877C110.256,754.987 152.609,635.294 209.693,683.171C174.343,706.225 190.148,773.097 246.522,762.353C299.923,749.463 342.276,629.77 399.361,677.647L399.361,679.488C364.011,702.543 379.815,769.414 436.189,758.67C489.591,745.78 531.944,626.087 589.028,673.964C553.678,697.018 569.483,763.89 625.857,753.146C679.258,740.256 721.611,622.404 778.696,670.281C743.346,693.335 759.15,760.207 815.524,749.463C868.926,736.573 911.279,616.88 968.363,664.757C933.013,687.811 948.818,754.683 1005.19,743.939C1058.59,731.049 1100.95,613.197 1158.03,661.074C1122.68,684.128 1138.49,751 1194.86,740.256C1248.26,727.366 1290.61,607.673 1347.7,655.55Z" style="fill:rgb(0,149,232);stroke:black;stroke-width:1.01px;"/>

        </g>

        <a href="https://americanpolicy.org/2009/06/09/theyve-discovered-gold-in-hell-or-how-the-lie-of-global-warming-became-the-most-powerful-political-force-in-human-history/"><text x="130.705px" y="211.661px" style="font-family:'ArialMT', 'Arial', sans-serif;font-size:66.667px;">Water</text></a>
    </g>

</svg>
